<?xml version="1.0" standalone="no"?>
<!DOCTYPE svg PUBLIC "-//W3C//DTD SVG 20010904//EN"
 "http://www.w3.org/TR/2001/REC-SVG-20010904/DTD/svg10.dtd">
<svg version="1.0" xmlns="http://www.w3.org/2000/svg"
 width="211.000000pt" height="238.000000pt" viewBox="0 0 211.000000 238.000000"
 preserveAspectRatio="xMidYMid meet">
<metadata>
Created by potrace 1.10, written by Peter Selinger 2001-2011
</metadata>
<g transform="translate(0.000000,238.000000) scale(0.100000,-0.100000)"
fill="#000000" stroke="none">
<path d="M567 2293 c-20 -43 -42 -110 -49 -149 -15 -89 -25 -59 237 -704 108
-267 212 -524 231 -571 l35 -86 49 -6 c161 -19 290 -201 290 -408 0 -105 85
-225 198 -281 59 -29 76 -33 147 -33 66 1 91 6 141 29 77 35 145 103 181 181
39 84 39 195 1 277 -101 218 -368 281 -548 129 l-45 -38 -405 854 c-223 470
-406 861 -408 869 -7 28 -19 13 -55 -63z m60 -43 c0 -3 32 -72 72 -155 40 -82
80 -167 88 -187 8 -21 19 -38 25 -38 5 0 7 -4 4 -9 -3 -4 21 -62 53 -127 33
-65 60 -123 61 -129 2 -5 22 -48 46 -95 55 -110 154 -324 154 -335 0 -2 -12 3
-27 11 -16 7 -37 14 -48 14 -30 0 -84 -36 -97 -65 -14 -32 -26 -32 -34 0 -3
14 -9 25 -13 25 -4 0 -8 6 -8 13 -1 6 -23 66 -51 132 -27 66 -53 131 -57 145
-4 13 -14 30 -21 38 -8 7 -12 18 -8 23 3 6 0 17 -7 25 -7 9 -14 21 -15 28 -1
6 -21 58 -44 116 -54 134 -57 143 -59 153 0 4 -12 29 -25 55 -13 26 -34 80
-46 120 -23 77 -22 128 5 202 7 19 16 43 19 53 5 15 8 16 20 5 8 -7 14 -15 13
-18z m478 -1115 c30 -30 31 -54 4 -89 -15 -19 -30 -26 -54 -26 -37 0 -75 37
-75 72 0 27 45 68 75 68 14 0 37 -11 50 -25z m89 -91 c4 -13 11 -24 17 -24 6
0 7 -4 4 -10 -3 -5 -1 -10 5 -10 6 0 8 -4 5 -10 -3 -5 -2 -10 3 -10 5 0 9 -6
9 -12 0 -19 112 -250 131 -272 13 -15 14 -18 2 -11 -8 4 -5 -3 8 -17 12 -13
20 -27 17 -30 -3 -3 6 -13 20 -22 24 -16 27 -16 55 1 17 9 30 20 30 24 0 10
105 58 146 66 69 15 165 3 191 -22 8 -8 21 -15 28 -15 8 0 35 -20 59 -44 58
-56 88 -129 89 -216 1 -80 -5 -110 -34 -158 -23 -37 -117 -132 -128 -130 -3 1
-31 -6 -63 -15 -31 -9 -70 -17 -87 -17 -40 0 -149 36 -168 56 -8 8 -20 11 -26
7 -7 -3 -9 -3 -5 1 9 11 -33 57 -45 49 -6 -4 -7 -1 -3 6 5 7 1 20 -7 29 -25
28 -44 92 -56 190 -12 94 -40 183 -68 215 -9 9 -12 17 -8 17 5 0 -18 25 -50
56 -61 58 -96 78 -175 98 -44 12 -46 13 -77 92 -38 93 -39 98 -15 89 9 -4 34
-9 55 -12 35 -4 43 0 78 37 22 23 37 45 34 51 -3 5 1 6 9 3 8 -3 17 -16 20
-30z"/>
<path d="M1591 644 c-165 -78 -203 -299 -74 -429 25 -26 48 -44 51 -41 3 4 14
-1 24 -11 10 -9 18 -13 18 -10 0 3 17 -1 37 -9 26 -11 49 -14 82 -8 25 4 49 7
54 6 4 -1 7 2 7 8 0 6 3 9 8 8 13 -2 46 15 83 44 43 34 87 116 94 175 5 44 -7
121 -22 132 -4 3 -17 23 -28 44 -19 37 -68 91 -51 57 4 -9 2 -8 -7 3 -8 9 -19
17 -26 17 -6 0 -11 4 -11 10 0 15 -72 30 -135 28 -35 -2 -77 -11 -104 -24z
m202 -27 c162 -68 192 -274 57 -390 -116 -99 -296 -53 -357 90 -7 18 -13 57
-13 88 0 94 52 175 135 211 39 17 137 18 178 1z"/>
<path d="M1490 2361 c0 -4 -88 -194 -196 -421 l-195 -413 32 -71 c18 -39 53
-114 78 -167 l46 -95 169 415 c99 246 170 435 173 462 3 25 0 70 -6 100 -19
87 -101 242 -101 190z m49 -152 c18 -48 22 -74 17 -122 -6 -80 -8 -87 -16 -87
-4 0 -13 -20 -20 -45 -7 -25 -16 -48 -21 -51 -4 -2 -6 -11 -2 -19 3 -8 1 -15
-4 -15 -10 0 -90 -199 -85 -212 1 -5 -2 -8 -8 -8 -6 0 -9 -3 -8 -7 1 -5 -3
-18 -10 -30 -7 -13 -11 -23 -8 -23 2 0 -9 -27 -25 -60 -15 -32 -31 -72 -35
-87 -4 -15 -14 -38 -21 -50 -8 -12 -12 -27 -8 -33 3 -5 2 -10 -3 -10 -5 0 -14
-11 -22 -24 -12 -23 -14 -20 -61 76 -27 54 -49 110 -49 124 0 14 11 45 25 70
13 24 23 44 20 44 -2 0 11 29 30 65 19 36 32 65 28 65 -3 0 2 9 13 21 10 12
18 22 16 23 -4 1 44 105 145 314 41 84 78 150 82 148 4 -3 18 -33 30 -67z"/>
<path d="M810 921 c-19 -42 -57 -124 -85 -182 l-51 -106 -44 39 c-171 148
-440 88 -542 -120 -29 -59 -33 -76 -33 -147 0 -68 5 -89 31 -145 39 -82 91
-134 174 -173 56 -27 76 -32 145 -32 71 0 88 4 147 33 113 56 198 176 198 281
0 143 70 292 172 366 l27 20 -45 105 c-24 58 -48 112 -52 121 -5 12 -16 -4
-42 -60z m48 -48 c0 -5 6 -24 14 -43 26 -57 25 -64 -20 -104 -38 -35 -110
-158 -119 -205 -9 -44 -13 -71 -19 -131 -7 -66 -39 -160 -55 -160 -5 0 -9 -4
-9 -10 0 -5 -13 -22 -29 -37 -44 -41 -71 -63 -71 -58 0 3 -10 0 -22 -7 -13 -7
-27 -12 -33 -13 -5 -1 -31 -5 -56 -9 -48 -8 -159 9 -159 25 0 5 -6 6 -12 4
-20 -8 -114 87 -143 145 -36 71 -42 133 -19 219 15 58 26 79 66 121 26 27 52
50 58 50 6 0 8 6 4 13 -4 6 -4 9 0 5 4 -3 27 3 51 13 58 26 115 30 187 13 59
-14 148 -58 148 -74 0 -5 14 -11 31 -15 45 -10 68 17 130 151 29 63 59 114 66
114 7 0 12 -3 11 -7z"/>
<path d="M295 649 c-58 -32 -106 -70 -99 -80 3 -5 1 -9 -4 -9 -13 0 -49 -80
-57 -126 -10 -66 33 -178 87 -226 23 -21 44 -36 46 -33 3 3 14 -3 25 -12 10
-10 20 -16 21 -14 0 2 21 -2 44 -9 24 -6 58 -8 75 -5 51 10 97 28 97 38 0 4 4
6 8 3 10 -6 93 70 85 78 -4 3 -2 6 4 6 18 0 43 78 43 133 0 55 -24 144 -44
162 -6 6 -16 19 -22 29 -5 11 -34 33 -63 49 -73 41 -185 49 -246 16z m198 -32
c84 -36 137 -117 137 -212 0 -133 -94 -228 -225 -229 -130 -1 -229 98 -228
229 0 93 51 173 133 209 44 19 140 20 183 3z"/>
</g>
</svg>
